if (_typeface_js && _typeface_js.loadFace) _typeface_js.loadFace({"glyphs":{"ο":{"x_min":68,"x_max":802,"ha":815,"o":"m 351 -25 q 138 58 215 -25 q 68 265 68 136 q 79 368 68 312 q 230 642 113 533 q 518 761 355 761 q 731 676 654 761 q 802 466 802 597 q 790 368 802 420 q 638 91 754 201 q 351 -25 514 -25 m 374 85 q 564 175 482 85 q 662 369 637 255 q 670 449 670 409 q 629 591 670 538 q 495 651 584 651 q 308 560 388 651 q 214 369 238 483 q 206 327 209 348 q 204 287 204 306 q 242 146 204 198 q 374 85 287 85 "},"S":{"x_min":62,"x_max":916,"ha":890,"o":"m 849 291 q 674 54 817 143 q 390 -26 545 -26 q 155 46 243 -26 q 62 252 62 122 q 63 294 62 279 q 71 337 64 309 l 202 337 q 196 305 197 322 q 195 270 195 288 q 249 134 195 183 q 401 85 304 85 q 583 129 496 85 q 707 270 687 182 q 710 304 710 283 q 573 430 710 386 q 321 505 447 467 q 184 678 184 563 q 184 704 184 695 q 190 739 185 713 q 347 964 221 881 q 610 1041 464 1041 q 829 973 743 1041 q 916 788 916 906 q 907 716 916 753 l 777 716 q 781 742 780 727 q 783 770 783 758 q 732 889 783 846 q 594 933 682 933 q 432 891 507 933 q 324 759 342 841 q 322 741 323 751 q 322 727 322 731 q 459 606 322 647 q 716 536 587 570 q 856 357 856 477 q 854 325 856 343 q 849 291 853 308 "},"¦":{"x_min":290.59375,"x_max":658.5,"ha":792,"o":"m 546 462 l 441 462 l 553 986 l 658 986 l 546 462 m 395 -241 l 290 -241 l 402 280 l 507 280 l 395 -241 "},"/":{"x_min":154.796875,"x_max":829.640625,"ha":792,"o":"m 829 1041 l 237 -129 l 154 -130 l 742 1040 l 829 1041 "},"Τ":{"x_min":190.28125,"x_max":994.453125,"ha":839,"o":"m 968 893 l 648 893 l 458 0 l 319 0 l 509 892 l 190 892 l 216 1013 l 994 1013 l 968 893 "},"y":{"x_min":40.296875,"x_max":841.734375,"ha":771,"o":"m 841 738 l 370 -83 q 263 -216 320 -166 q 113 -279 191 -279 q 40 -266 73 -279 l 65 -149 q 90 -155 69 -150 q 133 -160 112 -160 q 216 -114 180 -160 q 269 -26 227 -100 l 156 738 l 294 738 l 372 140 l 705 737 l 841 738 "},"Π":{"x_min":0,"x_max":1019.453125,"ha":917,"o":"m 802 0 l 666 0 l 855 886 l 329 886 l 140 0 l 0 0 l 216 1012 l 1019 1012 l 802 0 "},"ΐ":{"x_min":59.71875,"x_max":536.109375,"ha":361,"o":"m 509 800 l 400 800 l 426 925 l 536 925 l 509 800 m 169 800 l 59 800 l 86 925 l 195 925 l 169 800 m 283 3 q 231 -9 258 -3 q 179 -15 204 -15 q 96 16 120 -15 q 72 105 72 48 q 74 148 72 132 q 84 200 76 164 l 198 737 l 323 737 l 213 215 q 206 180 209 198 q 202 150 202 162 q 212 114 202 126 q 248 101 222 101 q 281 105 265 101 q 306 112 297 110 l 283 3 m 525 1040 l 288 819 l 205 819 l 387 1040 l 525 1040 "},"g":{"x_min":11,"x_max":842.953125,"ha":838,"o":"m 692 34 q 540 -213 659 -121 q 266 -306 422 -306 q 92 -261 165 -306 q 11 -121 11 -210 q 11 -85 11 -97 l 137 -84 q 188 -173 137 -140 q 301 -207 239 -207 q 490 -109 410 -207 q 584 89 554 -31 q 463 6 529 36 q 330 -23 397 -23 q 133 64 204 -23 q 68 272 68 146 q 79 370 68 318 q 223 634 111 520 q 492 758 345 758 q 613 729 561 758 q 701 644 665 700 l 720 737 l 842 737 l 692 34 m 661 367 q 669 448 669 408 q 630 591 669 538 q 497 652 586 652 q 310 561 390 652 q 214 369 239 481 q 206 288 206 328 q 246 146 206 200 q 379 85 292 85 q 566 176 486 85 q 661 367 636 255 "},"²":{"x_min":82,"x_max":617,"ha":539,"o":"m 523 383 l 82 383 q 212 566 105 492 q 405 668 308 617 q 525 798 509 727 q 528 820 528 811 q 498 882 528 859 q 422 905 468 905 q 322 869 368 905 q 261 761 276 833 l 176 761 q 279 922 198 864 q 440 974 350 974 q 566 936 515 974 q 617 832 617 899 q 612 797 617 817 q 487 635 593 706 q 298 539 453 613 q 189 455 198 492 l 538 455 l 523 383 "},"–":{"x_min":72.21875,"x_max":793.0625,"ha":803,"o":"m 777 334 l 72 334 l 87 410 l 793 410 l 777 334 "},"Κ":{"x_min":0,"x_max":1026.390625,"ha":893,"o":"m 819 0 l 650 0 l 402 509 l 215 356 l 138 0 l 0 0 l 216 1013 l 355 1013 l 251 526 l 843 1013 l 1026 1013 l 523 600 l 819 0 "},"ƒ":{"x_min":-104.828125,"x_max":613.5,"ha":513,"o":"m 531 651 l 399 651 l 20 -278 l -104 -278 l 274 651 l 153 651 l 176 751 l 296 751 q 355 948 328 900 q 527 1041 407 1041 q 567 1039 552 1041 q 613 1034 582 1038 l 589 922 q 537 931 560 931 q 459 883 487 931 q 430 793 441 853 l 421 751 l 553 751 l 531 651 "},"e":{"x_min":66,"x_max":798,"ha":813,"o":"m 782 326 l 208 326 q 206 304 207 314 q 206 280 206 294 q 246 145 206 196 q 376 87 292 87 q 515 130 449 87 q 613 245 581 174 l 749 245 q 587 47 696 121 q 352 -26 478 -26 q 140 54 214 -26 q 66 265 66 134 q 77 363 66 308 q 231 642 111 529 q 521 765 359 765 q 732 673 660 765 q 798 455 798 591 q 793 392 798 427 q 782 326 789 357 m 667 429 q 669 456 669 438 q 623 595 669 540 q 493 650 577 650 q 329 583 403 650 q 231 429 264 523 l 667 429 "},"ό":{"x_min":68,"x_max":802,"ha":815,"o":"m 351 -25 q 140 55 213 -25 q 68 266 68 136 q 79 368 68 312 q 230 642 113 533 q 518 761 355 761 q 731 676 654 761 q 802 466 802 597 q 790 368 802 420 q 638 91 754 201 q 351 -25 514 -25 m 374 85 q 564 175 482 85 q 662 369 637 255 q 670 449 670 409 q 629 591 670 538 q 495 651 584 651 q 308 560 388 651 q 214 369 238 483 q 206 327 209 348 q 204 287 204 306 q 242 146 204 198 q 374 85 287 85 m 798 1040 l 561 819 l 478 819 l 660 1040 l 798 1040 "},"J":{"x_min":53,"x_max":804,"ha":699,"o":"m 647 279 q 282 -26 583 -26 q 102 32 158 -26 q 53 187 53 83 q 69 327 53 250 l 202 327 q 194 279 198 309 q 191 230 191 250 q 214 136 191 168 q 310 96 243 96 q 462 170 412 96 q 520 336 494 219 l 665 1013 l 804 1013 l 647 279 "},"»":{"x_min":29.375,"x_max":598.609375,"ha":601,"o":"m 569 302 l 311 136 l 338 255 l 508 371 l 386 486 l 412 608 l 598 440 l 569 302 m 287 302 l 29 136 l 56 256 l 225 372 l 104 486 l 130 608 l 316 440 l 287 302 "},"©":{"x_min":91,"x_max":1129,"ha":1106,"o":"m 500 -7 q 189 109 299 -7 q 91 383 91 215 q 259 805 91 617 q 719 1011 442 1011 q 1030 894 921 1011 q 1129 619 1129 788 q 962 198 1129 384 q 500 -7 778 -7 m 514 60 q 913 239 753 60 q 1058 604 1058 401 q 973 842 1058 751 q 703 944 878 944 q 305 764 465 944 q 160 398 160 601 q 244 161 160 252 q 514 60 339 60 m 826 394 q 713 246 795 302 q 536 190 631 190 q 377 253 431 190 q 324 416 324 317 q 418 680 324 561 q 672 813 522 813 q 810 768 754 813 q 867 647 867 723 q 867 625 867 633 l 767 625 q 735 704 767 673 q 654 735 703 735 q 491 632 558 735 q 432 429 432 540 q 461 315 432 359 q 547 272 490 272 q 654 304 607 272 q 722 394 700 337 l 826 394 "},"ώ":{"x_min":63,"x_max":1006,"ha":1031,"o":"m 910 1040 l 674 819 l 590 819 l 772 1040 l 910 1040 m 994 339 q 878 97 965 203 q 644 -26 773 -26 q 540 9 582 -26 q 483 103 499 44 q 390 12 446 46 q 274 -22 335 -22 q 111 59 167 -22 q 63 243 63 130 q 73 338 63 295 q 164 551 95 444 q 318 737 224 644 l 460 737 q 293 552 360 648 q 197 336 219 444 q 187 251 187 294 q 209 140 187 182 q 293 88 236 88 q 410 163 360 88 q 463 294 447 219 l 522 572 l 646 572 l 586 294 q 578 213 578 258 q 596 123 578 158 q 661 88 615 88 q 801 182 737 88 q 871 341 851 255 q 881 433 881 386 q 853 588 881 515 q 776 737 826 661 l 918 737 q 982 590 958 665 q 1006 438 1006 516 q 994 339 1006 394 "},"^":{"x_min":358.328125,"x_max":763.890625,"ha":792,"o":"m 763 772 l 680 772 l 594 931 l 443 772 l 358 772 l 543 1013 l 679 1013 l 763 772 "},"«":{"x_min":65.28125,"x_max":637.5,"ha":604,"o":"m 536 136 l 348 302 l 377 440 l 637 608 l 610 486 l 438 373 l 562 257 l 536 136 m 251 136 l 65 302 l 94 440 l 352 608 l 326 486 l 153 372 l 277 256 l 251 136 "},"D":{"x_min":0,"x_max":954,"ha":935,"o":"m 605 1013 q 867 910 774 1013 q 954 653 954 814 q 949 589 954 625 q 938 521 945 554 q 747 161 892 309 q 381 0 587 0 l 0 0 l 216 1013 l 605 1013 m 402 124 q 659 247 549 124 q 788 510 755 355 q 801 619 801 564 q 746 812 801 739 q 567 896 685 896 l 330 895 l 165 123 l 402 124 "},"∙":{"x_min":125,"x_max":297.9375,"ha":239,"o":"m 266 585 l 125 585 l 156 738 l 297 738 l 266 585 "},"ÿ":{"x_min":3,"x_max":48.828125,"ha":125,"o":"m 47 0 q 36 -7 46 -7 q 28 0 28 -7 q 37 -4 30 -4 q 45 2 45 -1 l 37 0 q 30 9 29 0 q 45 19 32 19 l 48 15 l 48 19 l 47 0 m 37 1 q 47 8 45 1 q 45 16 50 16 q 32 8 34 16 q 37 1 29 1 m 27 0 l 28 25 l 14 0 l 7 22 l 3 0 l 5 25 l 15 1 l 28 25 l 27 0 "},"w":{"x_min":156.9375,"x_max":1166.671875,"ha":1100,"o":"m 1166 738 l 783 0 l 658 0 l 622 567 l 345 0 l 222 0 l 156 738 l 287 738 l 322 175 l 588 738 l 733 738 l 758 173 l 1037 738 l 1166 738 "},"$":{"x_min":54,"x_max":821,"ha":793,"o":"m 816 718 l 695 718 q 664 826 695 787 q 566 872 634 865 l 498 551 q 696 470 629 526 q 764 323 764 413 q 751 241 764 286 q 622 45 715 115 q 374 -25 530 -25 l 348 -152 l 274 -152 l 301 -25 q 118 37 183 -25 q 54 207 54 99 q 55 250 54 235 q 63 297 56 265 l 187 297 q 181 267 182 283 q 180 233 180 250 q 215 126 180 167 q 323 81 251 86 l 401 441 q 215 513 274 465 q 157 644 157 562 q 158 684 157 670 q 168 725 159 697 q 293 910 197 838 q 516 982 390 982 l 537 1077 l 610 1077 l 590 982 q 751 930 688 982 q 821 770 821 873 q 816 718 821 745 m 427 565 l 492 872 q 366 831 419 872 q 297 724 314 791 q 292 680 292 702 q 427 565 292 588 m 397 76 q 614 237 572 95 q 621 288 621 259 q 471 423 621 398 l 397 76 "},"\\":{"x_min":222.3125,"x_max":397.328125,"ha":522,"o":"m 397 -129 l 310 -129 l 222 1041 l 305 1041 l 397 -129 "},"µ":{"x_min":-58.71875,"x_max":774.609375,"ha":747,"o":"m 696 -4 q 662 -11 678 -8 q 627 -14 645 -14 q 520 97 520 -14 q 426 8 480 40 q 309 -23 371 -23 q 209 4 252 -23 q 137 80 166 32 l 60 -278 l -58 -278 l 157 738 l 281 737 l 198 343 q 189 262 189 305 q 219 139 189 185 q 327 83 255 83 q 491 178 420 83 q 570 358 548 255 l 650 738 l 774 738 l 663 213 q 657 181 660 200 q 655 147 655 162 q 663 106 655 121 q 695 92 671 92 q 719 96 703 92 l 696 -4 "},"Ι":{"x_min":41.671875,"x_max":397.21875,"ha":297,"o":"m 180 0 l 41 0 l 258 1013 l 397 1013 l 180 0 "},"Ύ":{"x_min":170.828125,"x_max":1361.109375,"ha":1214,"o":"m 1361 1012 l 895 416 l 806 0 l 666 0 l 755 416 l 541 1012 l 681 1012 l 850 533 l 1220 1012 l 1361 1012 m 500 1040 l 254 799 l 170 799 l 362 1040 l 500 1040 "},"’":{"x_min":143.0625,"x_max":355.5625,"ha":236,"o":"m 320 851 q 259 737 306 785 q 143 669 211 689 l 156 734 q 227 787 201 741 q 258 873 247 819 l 186 872 l 216 1013 l 355 1013 l 320 851 "},"Ν":{"x_min":0,"x_max":1018.0625,"ha":915,"o":"m 801 0 l 651 0 l 306 822 l 130 0 l 0 0 l 216 1013 l 368 1013 l 711 191 l 887 1013 l 1018 1013 l 801 0 "},"-":{"x_min":77.78125,"x_max":443.0625,"ha":478,"o":"m 419 317 l 77 317 l 101 428 l 443 428 l 419 317 "},"Q":{"x_min":93,"x_max":1092,"ha":1072,"o":"m 955 5 l 871 -78 l 753 36 q 620 -11 689 3 q 477 -26 551 -26 q 190 85 293 -26 q 93 366 93 190 q 108 504 93 430 q 315 880 155 728 q 707 1041 484 1041 q 996 929 894 1041 q 1092 649 1092 825 q 1089 578 1092 607 q 1076 507 1086 549 q 997 291 1052 394 q 855 104 941 187 l 955 5 m 763 191 q 875 336 828 247 q 935 500 915 414 q 948 620 948 561 q 885 833 948 754 q 680 922 815 922 q 395 791 518 922 q 249 505 284 673 q 237 390 237 447 q 301 179 237 260 q 506 91 371 91 q 660 124 586 91 l 566 215 l 651 301 l 763 191 "},"ς":{"x_min":72,"x_max":779,"ha":740,"o":"m 775 460 l 650 460 q 651 478 651 469 q 651 492 651 488 q 614 607 651 564 q 503 651 578 651 q 324 577 403 651 q 222 401 244 503 q 214 327 214 359 q 322 169 214 217 q 524 110 423 139 q 633 -8 633 74 q 628 -50 633 -26 q 587 -166 617 -104 q 523 -278 566 -211 l 405 -278 q 472 -158 459 -186 q 498 -80 490 -121 q 499 -62 499 -73 q 390 12 499 -12 q 183 73 227 48 q 72 276 72 135 q 74 331 72 313 q 84 388 76 348 q 240 651 117 541 q 516 761 363 761 q 710 696 642 761 q 779 517 779 632 q 775 460 779 489 "},"M":{"x_min":0,"x_max":1170.828125,"ha":1067,"o":"m 954 0 l 820 0 l 1005 868 l 537 0 l 405 0 l 313 865 l 127 0 l 0 0 l 216 1013 l 416 1012 l 505 157 l 975 1012 l 1170 1013 l 954 0 "},"Ψ":{"x_min":121,"x_max":1222.71875,"ha":1094,"o":"m 1150 678 q 982 319 1097 429 q 614 200 857 200 l 571 0 l 433 0 l 476 200 q 205 271 289 200 q 121 491 121 343 q 144 678 121 571 l 217 1013 l 356 1013 l 283 679 q 267 590 272 627 q 263 517 263 552 q 314 376 263 420 q 503 326 371 326 l 650 1013 l 788 1013 l 640 326 l 650 326 q 904 423 817 326 q 1013 679 975 502 l 1085 1013 l 1222 1013 l 1150 678 "},"C":{"x_min":91,"x_max":1034,"ha":944,"o":"m 966 379 q 779 88 929 202 q 449 -26 628 -26 q 177 83 270 -26 q 91 355 91 184 q 107 509 91 430 q 306 882 157 737 q 690 1041 468 1041 q 929 967 832 1041 q 1034 758 1034 888 q 1029 708 1034 733 l 896 708 q 832 862 896 805 q 669 920 769 920 q 387 791 508 920 q 243 509 279 675 q 231 397 231 452 q 292 187 231 266 q 490 99 360 99 q 703 178 610 99 q 832 379 796 257 l 966 379 "},"!":{"x_min":0,"x_max":355.796875,"ha":236,"o":"m 284 684 q 226 466 266 597 q 158 244 191 355 l 86 244 q 111 465 102 389 q 145 684 126 594 l 216 1013 l 355 1012 l 284 684 m 139 0 l 0 0 l 31 151 l 170 150 l 139 0 "},"{":{"x_min":66,"x_max":696.546875,"ha":578,"o":"m 418 -286 q 216 -240 275 -286 q 166 -123 166 -201 q 200 40 166 -70 q 235 195 235 151 q 200 280 235 252 q 66 314 158 314 l 88 417 q 321 571 275 417 q 385 859 353 715 q 696 1015 454 1015 l 675 915 q 478 797 520 915 q 433 557 456 676 q 253 365 394 409 q 333 308 311 344 q 356 218 356 272 q 327 66 356 169 q 298 -76 298 -36 q 329 -154 298 -127 q 441 -182 360 -182 l 418 -286 "},"X":{"x_min":0,"x_max":1052.828125,"ha":940,"o":"m 854 0 l 683 0 l 511 409 l 167 0 l 0 0 l 457 520 l 234 1013 l 402 1012 l 563 638 l 891 1013 l 1052 1012 l 615 520 l 854 0 "},"#":{"x_min":65.671875,"x_max":1110.109375,"ha":1061,"o":"m 1110 690 l 1053 590 l 844 590 l 741 410 l 962 410 l 905 310 l 683 310 l 507 -3 l 394 -3 l 572 309 l 395 309 l 215 -3 l 101 -3 l 278 310 l 65 310 l 122 410 l 336 410 l 438 590 l 211 590 l 267 690 l 494 690 l 674 1006 l 787 1006 l 609 690 l 787 690 l 965 1005 l 1079 1006 l 901 690 l 1110 690 m 732 590 l 550 590 l 449 409 l 629 409 l 732 590 "},"ι":{"x_min":72.21875,"x_max":323.609375,"ha":361,"o":"m 283 3 q 231 -9 258 -3 q 179 -15 204 -15 q 96 16 120 -15 q 72 105 72 48 q 74 148 72 132 q 84 200 76 164 l 198 738 l 323 738 l 213 215 q 206 180 209 198 q 202 150 202 162 q 212 114 202 126 q 248 101 222 101 q 281 105 265 101 q 306 112 297 110 l 283 3 "},"Ά":{"x_min":0,"x_max":906.953125,"ha":982,"o":"m 505 1040 l 259 799 l 176 799 l 368 1040 l 505 1040 m 906 0 l 756 0 l 715 303 l 316 303 l 143 0 l 0 0 l 593 1012 l 745 1012 l 906 0 m 700 421 l 637 866 l 383 421 l 700 421 "},")":{"x_min":-61.5,"x_max":419,"ha":415,"o":"m 396 365 q 260 19 359 191 q 25 -290 167 -141 l -61 -290 q 146 21 68 -126 q 270 360 234 186 q 298 605 298 485 q 278 808 298 710 q 219 1024 259 907 l 306 1024 q 390 805 362 915 q 419 572 419 696 q 396 365 419 468 "},"ε":{"x_min":38.78125,"x_max":704,"ha":714,"o":"m 684 234 q 530 38 648 110 q 294 -25 424 -25 q 120 19 192 -25 q 38 159 38 70 q 42 204 38 180 q 104 314 56 265 q 212 390 142 353 q 161 449 180 414 q 141 525 141 485 q 144 555 141 536 q 266 712 165 655 q 458 763 354 763 q 633 709 563 763 q 704 561 704 655 q 699 515 704 540 l 589 515 q 552 618 589 580 q 448 657 515 657 q 343 630 395 657 q 268 547 279 598 q 265 522 265 527 q 345 444 265 462 q 483 434 389 434 l 461 331 l 420 331 q 273 315 325 331 q 169 210 186 287 q 166 184 166 191 q 215 102 166 132 q 319 76 258 76 q 462 116 397 76 q 559 234 527 157 l 684 234 "},"Δ":{"x_min":0,"x_max":952.78125,"ha":1028,"o":"m 952 0 l 0 0 l 616 1013 l 768 1013 l 952 0 m 788 124 l 661 867 l 213 124 l 788 124 "},"}":{"x_min":-61,"x_max":569.546875,"ha":578,"o":"m 547 314 q 318 158 357 314 q 264 -130 290 14 q -61 -286 197 -286 l -38 -182 q 155 -62 112 -182 q 202 179 179 58 q 383 365 242 323 q 302 423 326 384 q 279 512 279 461 q 308 665 279 562 q 338 808 338 767 q 310 885 338 860 q 195 915 276 915 l 216 1015 q 419 969 360 1015 q 470 852 470 930 q 449 731 470 804 q 400 534 400 564 q 434 450 400 478 q 569 417 476 417 l 547 314 "},"‰":{"x_min":144,"x_max":1730,"ha":1821,"o":"m 845 0 q 695 55 748 0 q 648 187 648 105 q 728 390 648 300 q 949 489 816 489 q 1099 433 1048 489 q 1147 300 1147 383 q 1066 98 1147 188 q 845 0 977 0 m 866 103 q 987 157 939 103 q 1036 278 1036 212 q 1010 353 1036 325 q 925 385 981 385 q 804 330 852 385 q 756 209 756 275 q 783 132 756 162 q 866 103 810 103 m 1099 986 l 278 -26 l 193 -25 l 1014 986 l 1099 986 m 341 468 q 191 524 243 468 q 144 659 144 576 q 223 860 144 772 q 442 958 309 958 q 592 902 539 958 q 641 769 641 851 q 561 566 641 655 q 341 468 474 468 m 424 855 q 297 799 346 855 q 248 678 248 744 q 276 601 248 631 q 361 572 304 572 q 491 628 439 572 q 537 745 537 680 q 509 824 537 793 q 424 855 481 855 m 1428 0 q 1279 55 1331 0 q 1232 187 1232 105 q 1312 390 1232 300 q 1533 489 1399 489 q 1682 433 1631 489 q 1730 300 1730 383 q 1649 98 1730 188 q 1428 0 1560 0 m 1449 103 q 1571 157 1523 103 q 1619 278 1619 212 q 1594 353 1619 325 q 1509 385 1564 385 q 1387 330 1435 385 q 1340 209 1340 275 q 1367 132 1340 162 q 1449 103 1394 103 "},"a":{"x_min":34,"x_max":735,"ha":794,"o":"m 697 0 q 610 -17 650 -17 q 540 12 560 -17 q 520 96 520 41 q 384 6 463 38 q 229 -25 306 -25 q 86 17 139 -25 q 34 138 34 59 q 40 194 34 162 q 202 390 70 333 q 421 435 271 420 q 589 483 571 451 q 599 504 595 494 q 606 526 603 513 q 609 547 609 540 q 565 625 609 597 q 464 654 522 654 q 340 616 396 654 q 261 513 284 579 l 142 513 q 272 703 171 634 q 496 772 372 772 q 662 724 597 772 q 735 581 735 671 q 735 552 735 566 q 729 531 730 537 l 650 163 q 645 124 645 135 q 652 99 645 108 q 682 90 660 90 l 718 94 l 697 0 m 545 262 l 568 372 q 404 341 546 363 q 169 201 193 308 q 167 173 167 181 q 198 105 167 128 q 280 83 229 83 q 440 130 363 83 q 545 262 528 184 "},"—":{"x_min":72.21875,"x_max":1029.171875,"ha":1039,"o":"m 1013 334 l 72 334 l 87 410 l 1029 410 l 1013 334 "},"=":{"x_min":58.71875,"x_max":910.109375,"ha":792,"o":"m 889 510 l 117 510 l 137 606 l 910 606 l 889 510 m 830 235 l 58 235 l 79 332 l 851 332 l 830 235 "},"N":{"x_min":0,"x_max":1018.0625,"ha":914,"o":"m 801 0 l 651 0 l 306 823 l 130 0 l 0 0 l 216 1013 l 368 1013 l 711 190 l 887 1013 l 1018 1013 l 801 0 "},"ρ":{"x_min":-59.5,"x_max":803,"ha":797,"o":"m 791 369 q 640 94 757 207 q 357 -26 516 -26 q 230 3 287 -26 q 137 83 173 32 l 59 -278 l -59 -278 l 78 362 q 230 643 114 530 q 519 764 355 764 q 732 679 655 764 q 803 471 803 601 q 791 369 803 425 m 661 366 q 668 408 665 387 q 671 449 671 429 q 630 589 671 535 q 498 651 584 651 q 309 562 390 651 q 214 370 239 484 q 205 288 205 329 q 244 146 205 198 q 377 85 289 85 q 566 175 484 85 q 661 366 637 254 "},"2":{"x_min":59,"x_max":887,"ha":792,"o":"m 731 0 l 59 0 q 265 314 99 187 q 561 487 270 316 q 744 691 721 580 q 749 732 749 712 q 705 831 749 796 q 596 867 662 867 q 446 811 514 867 q 343 630 368 747 l 215 630 q 375 901 253 804 q 618 986 482 986 q 809 924 731 986 q 887 755 887 862 q 886 734 887 744 q 880 694 885 724 q 710 449 846 541 q 445 316 577 383 q 227 122 286 234 l 757 122 l 731 0 "},"¯":{"x_min":220.828125,"x_max":1179.171875,"ha":938,"o":"m 1162 1033 l 220 1033 l 237 1109 l 1179 1109 l 1162 1033 "},"Z":{"x_min":0,"x_max":995.828125,"ha":849,"o":"m 779 0 l 0 0 l 24 113 l 812 896 l 231 896 l 256 1013 l 995 1013 l 969 887 l 199 124 l 805 124 l 779 0 "},"u":{"x_min":46,"x_max":773.515625,"ha":729,"o":"m 616 0 l 498 0 l 522 110 q 393 11 470 47 q 240 -25 316 -25 q 94 29 143 -25 q 46 173 46 83 q 47 215 46 200 q 55 258 48 230 l 156 738 l 281 738 l 185 284 q 178 215 178 251 q 205 119 178 157 q 291 82 232 82 q 469 165 387 82 q 565 340 544 241 l 649 738 l 773 738 l 616 0 "},"k":{"x_min":0.15625,"x_max":770.921875,"ha":697,"o":"m 770 738 l 438 465 l 608 0 l 468 0 l 332 382 l 174 252 l 120 0 l 0 0 l 216 1012 l 337 1013 l 207 402 l 615 738 l 770 738 "},"Η":{"x_min":0,"x_max":1019.453125,"ha":917,"o":"m 802 0 l 666 0 l 768 475 l 241 475 l 140 0 l 0 0 l 216 1013 l 356 1013 l 268 599 l 794 599 l 883 1013 l 1019 1013 l 802 0 "},"Α":{"x_min":0,"x_max":906.953125,"ha":985,"o":"m 906 0 l 756 0 l 715 303 l 316 303 l 143 0 l 0 0 l 593 1013 l 745 1013 l 906 0 m 700 421 l 637 866 l 383 421 l 700 421 "},"s":{"x_min":44,"x_max":702,"ha":697,"o":"m 649 217 q 509 36 625 104 q 287 -23 406 -23 q 111 28 178 -23 q 44 175 44 79 q 44 195 44 186 q 50 238 44 204 l 171 238 q 168 203 168 218 q 209 115 168 146 q 317 85 251 85 q 439 112 382 85 q 522 207 508 146 q 524 218 524 212 q 524 226 524 223 q 426 309 524 282 q 234 365 328 337 q 132 497 132 409 q 132 516 132 508 q 137 544 132 523 q 262 708 159 648 q 460 761 352 761 q 627 716 560 761 q 702 579 702 666 q 702 551 702 565 q 696 532 697 537 l 575 532 q 578 558 578 551 q 536 632 578 607 q 438 657 495 657 q 334 636 381 657 q 262 558 273 609 q 260 536 260 541 q 357 454 260 480 q 551 403 455 428 q 655 268 655 360 q 655 237 655 253 q 649 217 650 222 "},"B":{"x_min":0,"x_max":901,"ha":876,"o":"m 697 546 q 810 488 770 536 q 850 368 850 440 q 844 311 850 337 q 691 83 813 171 q 431 0 575 0 l 0 0 l 216 1013 l 627 1013 q 816 968 742 1013 q 901 819 901 917 q 901 789 901 804 q 895 768 896 774 q 826 633 880 693 q 697 546 772 572 m 584 899 l 330 899 l 263 588 l 504 588 q 654 624 587 588 q 751 744 733 667 q 754 775 754 756 q 702 866 754 833 q 584 899 651 899 m 445 124 q 602 169 530 124 q 699 303 681 219 q 704 338 704 322 q 640 445 704 407 q 503 477 585 477 l 240 477 l 164 124 l 445 124 "},"…":{"x_min":0,"x_max":644.84375,"ha":708,"o":"m 141 0 l 0 0 l 31 151 l 173 151 l 141 0 m 376 0 l 235 0 l 267 151 l 408 151 l 376 0 m 612 0 l 471 0 l 503 151 l 644 151 l 612 0 "},"?":{"x_min":151.390625,"x_max":779,"ha":704,"o":"m 773 777 q 667 599 751 676 q 517 474 592 537 q 415 272 434 391 l 294 272 q 394 487 315 396 q 540 619 400 494 q 636 762 621 691 q 641 803 641 785 q 602 897 641 862 q 507 933 564 933 q 373 880 435 933 q 275 706 304 819 l 151 706 q 299 963 186 873 q 524 1044 401 1044 q 704 984 630 1044 q 779 830 779 925 q 778 809 779 820 q 773 777 777 798 m 369 0 l 230 0 l 262 151 l 401 150 l 369 0 "},"H":{"x_min":0.1875,"x_max":1020.328125,"ha":915,"o":"m 803 0 l 667 0 l 769 475 l 242 475 l 141 0 l 0 0 l 216 1013 l 357 1013 l 269 599 l 795 599 l 884 1013 l 1020 1013 l 803 0 "},"ν":{"x_min":156.9375,"x_max":831.953125,"ha":761,"o":"m 831 738 l 404 0 l 272 0 l 156 738 l 290 738 l 372 147 l 698 738 l 831 738 "},"c":{"x_min":68,"x_max":796,"ha":775,"o":"m 758 264 q 595 53 711 133 q 348 -26 480 -26 q 139 53 211 -26 q 68 262 68 132 q 80 370 68 314 q 230 645 116 538 q 516 761 352 761 q 718 688 641 761 q 796 493 796 615 l 663 493 q 615 606 663 562 q 496 650 567 650 q 308 563 386 650 q 213 372 238 487 q 206 330 209 351 q 204 289 204 310 q 244 149 204 203 q 377 88 290 88 q 521 136 455 88 q 623 264 587 185 l 758 264 "},"¶":{"x_min":168,"x_max":791.609375,"ha":678,"o":"m 211 892 l 242 892 l 261 761 l 336 892 l 366 891 l 334 741 l 313 741 l 341 866 l 267 739 l 246 741 l 226 871 l 197 741 l 177 741 l 211 892 m 492 854 l 464 730 q 403 691 456 691 q 378 691 390 691 q 360 696 366 695 l 362 713 l 405 706 q 444 733 436 706 l 451 763 q 402 741 435 741 q 362 778 362 741 q 363 797 362 790 q 445 860 375 860 q 463 860 455 860 q 492 854 471 860 m 469 841 l 444 843 q 381 796 393 843 q 380 782 380 790 q 409 756 380 756 q 458 796 448 756 l 469 841 m 777 988 l 713 988 l 502 -1 l 439 -1 l 650 988 l 527 988 l 316 -1 l 253 -1 l 381 601 q 220 653 284 601 q 168 764 168 697 q 172 805 168 784 q 312 989 194 918 q 534 1053 420 1053 l 791 1053 l 777 988 "},"β":{"x_min":-59.328125,"x_max":774,"ha":745,"o":"m 589 550 q 692 474 657 528 q 726 347 726 421 q 719 280 726 308 q 592 64 692 151 q 364 -22 493 -22 q 241 5 296 -22 q 144 82 186 32 l 67 -278 l -59 -278 l 126 593 q 247 903 171 800 q 540 1042 351 1042 q 708 982 642 1042 q 774 826 774 922 q 768 771 774 797 q 705 644 753 701 q 589 550 657 586 m 354 79 q 506 138 434 79 q 594 279 578 198 q 598 319 598 299 q 507 445 598 404 q 329 477 436 477 l 351 583 q 530 620 454 583 q 648 762 629 668 q 653 798 653 782 q 613 896 653 858 q 512 935 573 935 q 353 861 418 935 q 275 698 297 798 l 204 362 q 193 259 193 306 q 228 131 193 177 q 354 79 268 79 "},"Μ":{"x_min":0,"x_max":1170.828125,"ha":1068,"o":"m 954 0 l 819 0 l 1005 868 l 537 0 l 405 0 l 312 865 l 127 0 l 0 0 l 216 1013 l 416 1013 l 505 158 l 975 1013 l 1170 1013 l 954 0 "},"Ό":{"x_min":170.65625,"x_max":1243,"ha":1217,"o":"m 1227 505 q 1023 132 1179 282 q 636 -29 855 -29 q 354 84 455 -29 q 260 365 260 191 q 264 432 260 394 q 275 505 268 469 q 483 883 323 730 q 873 1046 652 1046 q 1152 930 1054 1046 q 1243 650 1243 825 q 1238 580 1243 618 q 1227 505 1234 543 m 1084 504 q 1097 619 1097 562 q 1037 826 1097 748 q 840 915 969 915 q 559 785 680 915 q 415 504 451 670 q 403 391 403 447 q 465 183 403 262 q 665 95 536 95 q 942 224 823 95 q 1084 504 1048 339 m 499 1040 l 254 799 l 170 799 l 362 1040 l 499 1040 "},"Ή":{"x_min":170.828125,"x_max":1375,"ha":1275,"o":"m 1158 0 l 1022 0 l 1123 475 l 597 475 l 495 0 l 355 0 l 572 1012 l 712 1012 l 623 599 l 1150 599 l 1238 1012 l 1375 1012 l 1158 0 m 500 1040 l 254 799 l 170 799 l 362 1040 l 500 1040 "},"•":{"x_min":104.5625,"x_max":783.71875,"ha":775,"o":"m 775 529 q 628 294 746 393 q 372 196 510 196 q 158 293 235 196 q 104 457 104 363 q 105 492 104 473 q 111 529 107 511 q 258 763 140 665 q 514 861 376 861 q 728 762 654 861 q 783 600 783 690 q 775 529 783 566 "},"¥":{"x_min":190.28125,"x_max":1036.125,"ha":886,"o":"m 683 561 l 816 561 l 800 487 l 625 487 l 570 416 l 563 380 l 779 380 l 761 308 l 547 307 l 482 0 l 341 0 l 406 308 l 190 308 l 206 380 l 423 380 l 430 417 l 406 487 l 229 487 l 244 561 l 378 561 l 217 1013 l 356 1013 l 525 533 l 895 1013 l 1036 1012 l 683 561 "},"(":{"x_min":55,"x_max":535.109375,"ha":415,"o":"m 254 -290 l 167 -290 q 84 -71 114 -187 q 55 162 55 44 q 77 365 55 264 q 213 712 114 542 q 447 1024 302 867 l 535 1024 q 325 705 403 857 q 200 360 239 539 q 176 125 176 236 q 195 -81 176 21 q 254 -290 215 -184 "},"U":{"x_min":72,"x_max":1013.328125,"ha":904,"o":"m 880 392 q 702 93 842 212 q 380 -25 561 -25 q 151 60 231 -25 q 72 284 72 145 q 73 339 72 322 q 84 392 75 356 l 217 1012 l 354 1013 l 220 391 q 212 318 212 354 q 264 165 212 223 q 416 107 316 107 q 624 189 534 107 q 738 391 713 272 l 872 1013 l 1013 1012 l 880 392 "},"γ":{"x_min":138.890625,"x_max":901.390625,"ha":822,"o":"m 901 737 l 473 54 l 402 -278 l 277 -278 l 348 54 l 259 495 q 233 597 244 573 q 152 651 206 651 l 138 651 l 161 751 l 200 753 q 319 711 280 753 q 368 594 352 676 l 447 208 l 773 737 l 901 737 "},"α":{"x_min":68,"x_max":843,"ha":808,"o":"m 763 -4 q 695 -14 724 -14 q 584 97 584 -14 q 467 7 533 40 q 331 -26 401 -26 q 136 60 205 -26 q 68 272 68 146 q 79 369 68 318 q 224 637 112 525 q 499 760 347 760 q 620 728 569 760 q 698 637 672 696 l 720 739 l 843 739 l 731 222 q 726 189 729 208 q 723 155 723 171 q 733 110 723 126 q 769 94 743 94 q 786 96 780 94 l 763 -4 m 662 371 q 671 453 671 412 q 632 593 671 541 q 499 653 587 653 q 311 566 392 653 q 215 379 239 490 q 206 290 206 339 q 243 146 206 199 q 376 84 287 84 q 567 176 485 84 q 662 371 637 257 "},"F":{"x_min":0,"x_max":900,"ha":717,"o":"m 873 888 l 331 888 l 265 583 l 738 583 l 712 458 l 239 458 l 141 0 l 0 0 l 216 1013 l 900 1013 l 873 888 "},"­":{"x_min":72.21875,"x_max":793.0625,"ha":803,"o":"m 777 334 l 72 334 l 87 410 l 793 410 l 777 334 "},":":{"x_min":0,"x_max":297.9375,"ha":239,"o":"m 266 585 l 125 585 l 156 738 l 297 738 l 266 585 m 141 0 l 0 0 l 31 151 l 173 151 l 141 0 "},"Χ":{"x_min":0,"x_max":1052.78125,"ha":935,"o":"m 854 0 l 683 0 l 511 409 l 166 0 l 0 0 l 458 519 l 234 1013 l 402 1013 l 563 637 l 891 1013 l 1052 1013 l 615 521 l 854 0 "},"*":{"x_min":280,"x_max":838.328125,"ha":792,"o":"m 838 768 l 629 713 l 727 544 l 621 477 l 534 653 l 375 479 l 295 544 l 468 713 l 280 766 l 341 876 l 516 812 l 559 1013 l 663 1012 l 620 811 l 823 874 l 838 768 "},"†":{"x_min":145.828125,"x_max":950,"ha":835,"o":"m 630 804 l 950 804 l 923 683 l 604 683 l 458 0 l 319 0 l 465 681 l 145 683 l 172 804 l 491 804 l 535 1015 l 675 1014 l 630 804 "},"°":{"x_min":204,"x_max":560,"ha":444,"o":"m 345 802 q 240 841 276 802 q 204 937 204 880 q 261 1081 204 1017 q 419 1153 323 1153 q 526 1112 489 1153 q 560 1016 560 1076 q 502 873 560 937 q 345 802 440 802 m 362 884 q 441 918 411 884 q 472 995 472 953 q 454 1044 472 1024 q 401 1064 436 1064 q 322 1029 352 1064 q 292 952 292 994 q 310 903 292 923 q 362 884 328 884 "},"V":{"x_min":215.671875,"x_max":1077.90625,"ha":940,"o":"m 1077 1013 l 504 0 l 360 0 l 215 1013 l 359 1013 l 468 166 l 933 1013 l 1077 1013 "},"Ξ":{"x_min":0,"x_max":940.28125,"ha":763,"o":"m 913 889 l 200 889 l 226 1013 l 940 1013 l 913 889 m 772 463 l 159 463 l 187 589 l 800 589 l 772 463 m 734 0 l 0 0 l 26 124 l 761 124 l 734 0 "}," ":{"x_min":0,"x_max":0,"ha":853},"Ϋ":{"x_min":216.671875,"x_max":1036.109375,"ha":889,"o":"m 811 1046 l 683 1046 l 713 1189 l 841 1189 l 811 1046 m 583 1046 l 455 1046 l 486 1189 l 613 1189 l 583 1046 m 1036 1012 l 570 416 l 481 0 l 341 0 l 430 416 l 216 1012 l 356 1012 l 525 533 l 895 1012 l 1036 1012 "},"0":{"x_min":155,"x_max":838,"ha":792,"o":"m 388 -29 q 210 66 271 -29 q 155 301 155 154 q 279 755 155 543 q 604 989 417 989 q 782 891 721 989 q 838 657 838 804 q 713 202 838 414 q 388 -29 575 -29 m 413 89 q 631 277 536 89 q 719 640 719 451 q 687 804 719 744 q 579 871 650 871 q 361 682 456 871 q 274 319 274 508 q 308 152 274 215 q 413 89 342 89 "},"”":{"x_min":143.0625,"x_max":563.890625,"ha":454,"o":"m 320 851 q 259 737 306 785 q 143 669 211 689 l 156 734 q 227 787 201 741 q 258 873 247 819 l 186 872 l 216 1013 l 355 1013 l 320 851 m 529 851 q 467 737 515 785 q 351 669 419 689 l 365 734 q 436 787 409 741 q 466 873 455 819 l 394 872 l 424 1013 l 563 1013 l 529 851 "},"@":{"x_min":64,"x_max":1381,"ha":1357,"o":"m 1089 -45 q 842 -160 975 -117 q 590 -203 709 -203 q 189 -72 327 -203 q 64 238 64 45 q 294 752 64 517 q 903 1008 546 1008 q 1271 890 1146 1008 q 1381 619 1381 787 q 1239 255 1381 420 q 884 82 1089 82 q 802 99 829 82 q 775 160 775 117 q 780 201 775 180 q 672 113 730 144 q 546 82 614 82 q 416 127 458 82 q 374 248 374 172 q 494 535 374 394 q 786 690 625 690 q 936 588 907 690 l 992 668 l 1081 668 q 972 441 1015 532 q 882 226 890 266 q 880 211 880 220 q 896 178 880 190 q 937 167 912 167 q 1173 306 1068 167 q 1278 603 1278 445 q 1190 828 1278 743 q 885 925 1089 925 q 361 701 578 925 q 163 252 163 495 q 265 -10 163 87 q 601 -122 380 -122 q 837 -87 711 -122 q 1062 8 964 -53 l 1089 -45 m 890 488 q 860 581 890 547 q 775 615 830 615 q 574 492 665 615 q 488 266 488 379 q 511 185 488 215 q 586 156 535 156 q 782 273 700 156 q 890 488 805 308 "},"Ί":{"x_min":170.828125,"x_max":715.28125,"ha":613,"o":"m 500 1040 l 254 799 l 170 799 l 362 1040 l 500 1040 m 498 0 l 359 0 l 576 1012 l 715 1012 l 498 0 "},"i":{"x_min":13.890625,"x_max":353.25,"ha":275,"o":"m 323 872 l 200 872 l 231 1013 l 353 1012 l 323 872 m 136 0 l 13 0 l 170 738 l 293 737 l 136 0 "},"Β":{"x_min":-0.828125,"x_max":901,"ha":876,"o":"m 696 545 q 809 487 770 535 q 849 367 849 439 q 843 310 849 337 q 690 83 813 170 q 431 0 574 0 l 0 0 l 215 1013 l 626 1013 q 815 968 742 1013 q 901 819 901 916 q 901 788 901 804 q 895 768 896 773 q 825 632 879 692 q 696 545 771 571 m 584 899 l 330 899 l 263 587 l 504 587 q 654 623 587 587 q 751 744 733 666 q 754 775 754 755 q 702 866 754 833 q 584 899 651 899 m 445 124 q 602 169 530 124 q 700 302 681 219 q 704 337 704 322 q 640 444 704 406 q 504 476 586 476 l 240 476 l 165 124 l 445 124 "},"υ":{"x_min":64,"x_max":775.5625,"ha":725,"o":"m 692 352 q 561 94 660 199 q 303 -24 450 -24 q 121 56 183 -24 q 64 248 64 130 q 75 352 64 297 l 158 739 l 285 739 l 203 355 q 195 275 195 317 q 225 153 195 200 q 333 98 261 98 q 492 185 424 98 q 568 355 547 256 l 650 739 l 775 739 l 692 352 "},"]":{"x_min":-58.71875,"x_max":492.703125,"ha":372,"o":"m 216 -281 l -58 -281 l -39 -187 l 111 -186 l 348 920 l 196 920 l 217 1013 l 492 1013 l 216 -281 "},"m":{"x_min":-0.015625,"x_max":1135,"ha":1128,"o":"m 1019 0 l 896 0 l 993 454 q 1000 483 998 473 q 1002 514 1002 493 q 975 615 1002 577 q 882 660 944 660 q 738 586 801 660 q 666 436 684 522 l 573 0 l 447 0 l 544 454 q 551 517 551 489 q 526 615 551 580 q 434 657 497 657 q 290 585 354 657 q 215 436 234 522 l 121 0 l 0 0 l 158 738 l 275 738 l 254 640 q 357 729 297 695 q 479 763 418 763 q 594 730 544 763 q 664 642 644 697 q 777 732 708 701 q 916 763 846 763 q 1075 710 1015 763 q 1135 568 1135 658 q 1129 512 1135 538 l 1019 0 "},"χ":{"x_min":-50,"x_max":883.328125,"ha":815,"o":"m 720 -278 q 652 -294 686 -294 q 561 -257 600 -294 q 511 -175 527 -227 l 408 133 l 83 -277 l -50 -277 l 368 254 l 275 522 q 252 586 256 577 q 173 640 229 640 q 144 637 166 640 l 169 752 l 213 757 q 315 719 275 757 q 370 627 348 687 l 462 372 l 751 737 l 883 737 l 501 250 l 609 -69 q 637 -153 623 -110 q 702 -188 655 -188 q 741 -184 718 -188 l 720 -278 "},"8":{"x_min":108,"x_max":864,"ha":792,"o":"m 683 527 q 772 447 742 498 q 802 337 802 397 q 688 93 802 202 q 389 -26 564 -26 q 177 47 253 -26 q 108 218 108 114 q 167 398 108 312 q 333 527 226 484 q 262 596 284 557 q 240 683 240 636 q 345 887 240 794 q 606 986 458 986 q 797 922 726 986 q 864 773 864 862 q 820 640 864 702 q 683 527 772 570 m 516 565 q 666 624 607 565 q 721 749 721 678 q 685 837 721 802 q 579 872 650 872 q 429 812 488 872 q 375 688 375 758 q 410 600 375 635 q 516 565 445 565 m 415 91 q 595 165 523 91 q 662 320 662 235 q 623 422 662 384 q 495 465 578 465 q 315 391 387 465 q 250 239 250 325 q 288 135 250 174 q 415 91 333 91 "},"ί":{"x_min":72.21875,"x_max":548.609375,"ha":361,"o":"m 283 3 q 231 -9 258 -3 q 179 -15 204 -15 q 96 16 120 -15 q 72 105 72 48 q 74 148 72 132 q 84 200 76 164 l 198 737 l 323 737 l 213 215 q 206 180 209 198 q 202 150 202 162 q 212 114 202 126 q 248 101 222 101 q 281 105 265 101 q 306 112 297 109 l 283 3 m 548 1040 l 312 819 l 229 819 l 411 1040 l 548 1040 "},"Ζ":{"x_min":0,"x_max":995.828125,"ha":850,"o":"m 779 0 l 0 0 l 25 113 l 812 896 l 231 896 l 256 1013 l 995 1013 l 969 887 l 197 124 l 805 124 l 779 0 "},"R":{"x_min":0,"x_max":913,"ha":907,"o":"m 781 0 l 623 0 q 611 70 611 31 q 628 199 611 112 q 646 316 646 285 q 618 399 646 373 q 501 433 583 433 l 230 433 l 138 0 l 0 0 l 216 1013 l 612 1013 q 821 960 739 1013 q 913 790 913 900 q 906 731 913 766 q 838 597 890 659 q 715 502 787 534 q 778 453 760 487 q 797 367 797 419 q 785 269 797 330 q 761 106 761 131 q 787 26 761 52 l 781 0 m 491 551 q 662 594 583 551 q 772 731 754 645 q 775 749 775 740 q 775 763 775 759 q 705 866 775 832 q 565 896 648 896 l 328 896 l 254 551 l 491 551 "},"o":{"x_min":68,"x_max":803,"ha":821,"o":"m 351 -25 q 140 55 213 -25 q 68 266 68 136 q 79 368 68 312 q 230 642 113 533 q 519 761 355 761 q 732 676 655 761 q 803 466 803 597 q 791 368 803 420 q 639 91 755 201 q 351 -25 515 -25 m 374 85 q 565 175 483 85 q 662 369 637 255 q 671 449 671 409 q 630 591 671 538 q 495 651 584 651 q 308 560 388 651 q 213 369 238 483 q 206 327 209 348 q 204 287 204 306 q 242 146 204 198 q 374 85 287 85 "},"5":{"x_min":105,"x_max":888.328125,"ha":792,"o":"m 803 314 q 641 60 768 153 q 385 -23 525 -23 q 189 36 267 -23 q 105 212 105 101 q 105 256 105 240 l 237 256 q 284 131 237 175 q 397 91 327 91 q 562 149 486 91 q 668 314 647 213 q 672 340 671 325 q 674 365 674 354 q 625 484 674 441 q 498 528 576 528 q 392 505 445 528 q 291 439 340 483 l 175 439 l 363 958 l 888 958 l 863 840 l 432 840 l 337 579 q 440 627 388 612 q 543 643 492 643 q 734 571 657 643 q 812 384 812 500 q 803 314 812 351 "},"7":{"x_min":193.0625,"x_max":936.109375,"ha":792,"o":"m 911 839 q 567 448 701 644 q 336 0 433 252 l 193 0 q 425 441 290 249 q 772 830 559 632 l 237 830 l 263 958 l 936 958 l 911 839 "},"K":{"x_min":-0.171875,"x_max":1026.109375,"ha":906,"o":"m 819 0 l 650 0 l 403 509 l 215 356 l 138 0 l 0 0 l 216 1013 l 355 1013 l 251 526 l 843 1013 l 1026 1013 l 523 600 l 819 0 "},",":{"x_min":-44.4375,"x_max":173.609375,"ha":239,"o":"m 138 -12 q 76 -132 123 -84 q -44 -205 29 -180 l -29 -138 q 40 -82 15 -124 q 69 0 56 -55 l 0 0 l 32 150 l 173 151 l 138 -12 "},"d":{"x_min":68,"x_max":899.796875,"ha":796,"o":"m 683 0 l 563 0 l 583 93 q 456 6 523 37 q 322 -25 390 -25 q 131 66 201 -25 q 68 275 68 150 q 77 365 68 322 q 226 639 112 525 q 505 763 349 763 q 625 733 574 763 q 702 647 675 704 l 780 1013 l 899 1013 l 683 0 m 661 373 q 669 454 669 414 q 630 593 669 540 q 499 653 586 653 q 308 561 390 653 q 212 365 237 482 q 204 286 204 325 q 244 146 204 200 q 376 85 290 85 q 566 178 486 85 q 661 373 637 259 "},"¨":{"x_min":113.890625,"x_max":500.03125,"ha":232,"o":"m 469 1045 l 341 1046 l 372 1189 l 500 1189 l 469 1045 m 241 1046 l 113 1046 l 144 1189 l 272 1189 l 241 1046 "},"E":{"x_min":0,"x_max":941.671875,"ha":789,"o":"m 736 0 l 0 0 l 216 1013 l 941 1013 l 915 889 l 329 889 l 264 585 l 802 585 l 777 467 l 238 467 l 165 125 l 762 125 l 736 0 "},"Y":{"x_min":215.671875,"x_max":1034.796875,"ha":886,"o":"m 1034 1013 l 569 416 l 480 0 l 339 0 l 429 418 l 215 1013 l 355 1012 l 523 533 l 894 1013 l 1034 1013 "},"\"":{"x_min":129.171875,"x_max":510.03125,"ha":396,"o":"m 428 605 l 331 606 l 413 988 l 510 987 l 428 605 m 224 606 l 129 606 l 211 988 l 306 988 l 224 606 "},"‹":{"x_min":97.609375,"x_max":943.125,"ha":792,"o":"m 780 40 l 97 376 l 117 465 l 943 799 l 919 692 l 248 421 l 804 149 l 780 40 "},"„":{"x_min":-44.4375,"x_max":395.828125,"ha":467,"o":"m 138 -12 q 76 -132 123 -84 q -44 -205 29 -180 l -29 -138 q 40 -82 15 -124 q 69 0 56 -55 l 0 0 l 32 150 l 173 151 l 138 -12 m 361 -12 q 298 -132 345 -84 q 177 -205 251 -180 l 193 -138 q 262 -82 237 -124 q 291 0 279 -55 l 222 0 l 254 150 l 395 151 l 361 -12 "},"δ":{"x_min":67,"x_max":859.71875,"ha":810,"o":"m 787 360 q 635 87 750 195 q 351 -28 513 -28 q 141 52 216 -28 q 67 259 67 133 q 78 356 67 304 q 230 607 111 511 q 505 703 350 703 q 387 804 461 744 q 263 903 304 870 l 287 1012 l 859 1012 l 836 901 l 451 901 q 608 780 592 792 q 740 634 694 706 q 797 444 797 544 q 793 398 797 421 q 787 360 789 374 m 661 365 q 669 434 669 402 q 580 602 669 533 q 502 611 542 611 q 313 541 389 611 q 213 355 237 472 q 205 279 205 318 q 245 143 205 194 q 376 85 290 85 q 565 173 484 85 q 661 365 637 251 "},"έ":{"x_min":38.78125,"x_max":743.0625,"ha":714,"o":"m 684 234 q 530 38 648 111 q 294 -25 424 -25 q 120 19 192 -25 q 38 159 38 70 q 42 204 38 180 q 104 313 56 265 q 212 390 142 352 q 161 449 180 413 q 141 525 141 484 q 144 555 141 536 q 266 712 165 655 q 458 763 354 763 q 633 709 563 763 q 704 561 704 655 q 699 515 704 540 l 589 515 q 552 618 589 580 q 448 657 515 657 q 343 630 395 657 q 268 547 279 598 q 265 522 265 527 q 345 444 265 462 q 483 434 389 434 l 461 331 l 420 331 q 273 315 325 331 q 169 210 186 287 q 166 184 166 191 q 215 102 166 132 q 319 76 258 76 q 462 117 397 76 q 559 234 527 158 l 684 234 m 743 1040 l 506 819 l 423 819 l 605 1040 l 743 1040 "},"ω":{"x_min":63,"x_max":1006,"ha":1031,"o":"m 994 339 q 878 97 965 203 q 644 -26 773 -26 q 540 9 582 -26 q 483 103 499 44 q 390 12 446 46 q 274 -22 335 -22 q 111 59 167 -22 q 63 243 63 130 q 73 339 63 296 q 164 551 95 444 q 318 738 224 644 l 460 738 q 293 553 360 649 q 197 336 219 444 q 187 251 187 294 q 209 140 187 182 q 293 88 236 88 q 410 163 360 88 q 463 294 447 219 l 522 572 l 646 572 l 586 294 q 578 213 578 258 q 596 123 578 158 q 661 88 615 88 q 801 182 737 88 q 871 342 851 256 q 881 433 881 386 q 853 588 881 515 q 776 738 826 661 l 918 738 q 982 591 958 665 q 1006 439 1006 517 q 994 339 1006 394 "},"´":{"x_min":129.171875,"x_max":307.234375,"ha":251,"o":"m 225 605 l 129 606 l 211 988 l 307 987 l 225 605 "},"±":{"x_min":15.28125,"x_max":905.5625,"ha":792,"o":"m 884 490 l 549 490 l 500 255 l 402 254 l 452 490 l 115 490 l 136 586 l 473 586 l 522 818 l 620 819 l 570 586 l 905 586 l 884 490 m 784 21 l 15 21 l 36 115 l 805 115 l 784 21 "},"|":{"x_min":290.59375,"x_max":658.5,"ha":792,"o":"m 546 462 l 441 462 l 553 986 l 658 986 l 546 462 m 395 -241 l 290 -241 l 402 280 l 507 280 l 395 -241 "},"ϋ":{"x_min":64,"x_max":775.5625,"ha":725,"o":"m 652 800 l 543 800 l 569 925 l 679 925 l 652 800 m 409 800 l 300 800 l 326 925 l 436 925 l 409 800 m 692 352 q 561 93 660 199 q 303 -24 450 -24 q 121 56 183 -24 q 64 248 64 129 q 75 352 64 296 l 158 738 l 285 738 l 203 354 q 195 275 195 317 q 225 153 195 200 q 333 98 261 98 q 492 185 424 98 q 568 354 547 256 l 650 738 l 775 738 l 692 352 "},"§":{"x_min":64,"x_max":708,"ha":690,"o":"m 683 425 q 622 312 672 369 q 517 233 572 254 q 559 122 559 186 q 555 83 559 103 q 443 -74 534 -12 q 259 -133 358 -133 q 116 -83 169 -133 q 64 50 64 -33 q 68 96 64 72 l 188 96 q 183 64 183 79 q 210 -1 183 22 q 283 -26 237 -26 q 370 -5 327 -26 q 432 60 423 19 q 435 76 435 68 q 435 87 435 83 q 348 204 435 150 q 187 300 268 251 q 100 446 100 364 q 104 490 100 466 q 161 602 116 550 q 271 687 207 654 q 229 783 229 729 q 232 812 229 802 q 343 984 254 919 q 519 1043 422 1043 q 653 997 599 1043 q 708 866 708 952 q 707 845 708 857 q 702 814 706 834 l 585 814 q 586 836 586 822 q 558 912 586 886 q 490 939 530 939 q 407 911 446 939 q 360 841 368 884 q 359 820 359 834 q 443 719 359 770 q 603 625 522 672 q 689 473 689 559 q 689 450 689 461 q 683 425 684 433 m 554 409 q 556 427 556 415 q 426 576 556 497 q 331 630 378 602 q 271 587 292 608 q 236 525 243 559 q 235 508 235 519 q 329 380 235 448 q 462 298 437 315 q 522 345 497 316 q 554 409 547 375 "},"b":{"x_min":0,"x_max":774,"ha":783,"o":"m 764 372 q 618 99 730 213 q 341 -25 496 -25 q 220 5 272 -25 q 140 93 169 36 l 120 0 l 0 0 l 216 1013 l 337 1013 l 256 634 q 369 723 305 693 q 502 754 433 754 q 704 667 629 754 q 774 462 774 587 q 764 372 774 415 m 631 356 q 638 398 635 377 q 641 439 641 419 q 600 582 641 528 q 467 644 554 644 q 282 556 362 644 q 187 369 209 478 q 180 327 183 348 q 177 285 177 306 q 216 144 177 196 q 348 83 261 83 q 535 169 454 83 q 631 356 606 245 "},"q":{"x_min":66,"x_max":839.265625,"ha":876,"o":"m 622 -278 l 503 -278 l 584 97 q 474 8 540 39 q 339 -23 407 -23 q 137 59 209 -23 q 66 268 66 142 q 77 364 66 312 q 222 635 110 521 q 499 760 346 760 q 698 637 643 760 l 719 737 l 839 737 l 622 -278 m 661 375 q 669 452 669 413 q 629 592 669 539 q 496 652 583 652 q 309 565 390 652 q 213 377 237 488 q 206 335 209 356 q 204 292 204 314 q 244 147 204 203 q 377 84 290 84 q 566 179 486 84 q 661 375 636 261 "},"Ω":{"x_min":0.109375,"x_max":1087,"ha":1068,"o":"m 969 0 l 555 0 l 581 123 q 809 308 714 194 q 933 558 903 423 q 943 651 943 602 q 877 844 943 772 q 681 922 808 922 q 420 821 531 922 q 275 567 308 720 q 264 467 264 512 q 310 274 264 363 q 439 123 357 184 l 412 0 l 0 0 l 26 124 l 244 124 q 125 452 125 258 q 137 572 125 511 q 339 911 181 781 q 706 1041 497 1041 q 984 943 882 1041 q 1087 683 1087 845 q 1074 569 1087 630 q 969 326 1048 443 q 776 124 889 210 l 995 124 l 969 0 "},"ύ":{"x_min":64,"x_max":775.5625,"ha":725,"o":"m 692 352 q 561 93 660 199 q 303 -24 450 -24 q 121 56 183 -24 q 64 248 64 129 q 75 352 64 296 l 158 738 l 285 738 l 203 354 q 195 275 195 317 q 225 153 195 200 q 333 98 261 98 q 492 185 424 98 q 568 354 547 256 l 650 738 l 775 738 l 692 352 m 756 1040 l 520 819 l 437 819 l 619 1040 l 756 1040 "},"z":{"x_min":0,"x_max":751.390625,"ha":697,"o":"m 613 0 l 0 0 l 20 100 l 568 630 l 155 630 l 177 738 l 751 738 l 730 636 l 187 110 l 637 110 l 613 0 "},"™":{"x_min":202.78125,"x_max":1109.71875,"ha":1000,"o":"m 591 951 l 431 951 l 336 503 l 267 502 l 363 951 l 202 951 l 216 1011 l 605 1011 l 591 951 m 1000 503 l 933 502 l 1026 938 l 791 503 l 726 503 l 680 936 l 588 502 l 523 503 l 633 1011 l 733 1010 l 777 580 l 1012 1011 l 1109 1011 l 1000 503 "},"ή":{"x_min":80.5625,"x_max":812.5,"ha":810,"o":"m 637 -278 l 512 -278 l 669 454 q 676 520 676 491 q 651 611 676 577 q 563 650 622 650 q 395 579 476 650 q 295 420 313 509 l 205 0 l 80 0 l 184 489 q 193 535 190 517 q 197 574 197 553 q 186 623 197 607 q 137 644 170 644 l 158 741 q 229 755 197 755 q 309 721 283 755 q 334 630 334 688 q 452 726 381 692 q 597 761 522 761 q 752 709 693 761 q 812 570 812 658 q 812 545 812 558 q 806 516 808 526 l 637 -278 m 701 1040 l 465 819 l 381 819 l 563 1040 l 701 1040 "},"Θ":{"x_min":93,"x_max":1084,"ha":1056,"o":"m 1068 507 q 861 129 1020 280 q 469 -32 692 -32 q 186 81 286 -32 q 93 365 93 188 q 108 507 93 430 q 312 883 156 733 q 700 1045 479 1045 q 988 929 885 1045 q 1084 644 1084 822 q 1068 507 1084 580 m 924 500 q 937 618 937 558 q 875 832 937 751 q 673 924 806 924 q 392 792 513 924 q 249 507 285 675 q 237 387 237 446 q 296 177 237 257 q 495 89 363 89 q 778 218 654 89 q 924 500 889 334 m 812 449 l 338 449 l 365 571 l 838 571 l 812 449 "},"®":{"x_min":91,"x_max":1129,"ha":1106,"o":"m 617 532 q 735 562 680 532 q 811 658 798 598 q 814 681 814 674 q 770 750 814 729 q 668 772 726 772 l 503 771 l 452 531 l 617 532 m 500 -7 q 189 109 299 -7 q 91 383 91 215 q 259 805 91 617 q 719 1011 442 1011 q 1030 894 921 1011 q 1129 619 1129 788 q 962 198 1129 384 q 500 -7 778 -7 m 514 60 q 913 239 753 60 q 1058 604 1058 401 q 973 842 1058 751 q 703 944 878 944 q 305 764 465 944 q 160 398 160 601 q 244 161 160 252 q 514 60 339 60 m 818 146 l 709 146 q 701 194 701 169 q 707 259 701 222 q 724 367 724 350 q 704 425 724 405 q 622 449 679 449 l 434 448 l 368 146 l 271 146 l 422 854 l 700 854 q 846 817 790 854 q 910 699 910 776 q 905 658 910 681 q 859 564 894 607 q 774 497 824 521 q 818 463 806 486 q 831 404 831 440 q 813 286 831 380 q 805 219 805 243 q 822 164 805 180 l 818 146 "},"~":{"x_min":140.671875,"x_max":1036.5,"ha":931,"o":"m 1036 958 q 939 753 1010 831 q 735 665 857 665 q 564 761 643 665 q 422 857 485 857 q 300 795 347 857 q 244 665 262 747 l 140 665 q 237 867 167 789 q 440 958 319 958 q 613 861 536 958 q 757 765 690 765 q 880 827 835 765 q 932 958 915 874 l 1036 958 "},"Ε":{"x_min":0,"x_max":941.671875,"ha":778,"o":"m 736 0 l 0 0 l 216 1013 l 941 1013 l 915 889 l 329 889 l 263 585 l 802 585 l 777 467 l 238 467 l 165 125 l 762 125 l 736 0 "},"³":{"x_min":115,"x_max":604,"ha":547,"o":"m 567 552 q 466 413 548 466 q 299 366 391 366 q 170 403 220 366 q 115 520 115 445 q 115 537 115 529 q 120 566 115 545 l 205 566 q 203 547 204 557 q 203 534 203 538 q 235 461 203 486 q 317 437 268 437 q 419 467 373 437 q 477 552 466 498 q 480 576 480 569 q 443 637 480 618 q 355 657 407 657 q 335 657 345 657 q 316 657 321 657 l 330 722 q 437 733 404 722 q 508 815 496 752 q 510 826 510 820 q 510 834 510 831 q 482 886 510 866 q 415 907 455 907 q 320 875 363 907 q 263 780 277 844 l 181 780 q 277 926 202 874 q 428 972 344 972 q 553 938 503 972 q 604 845 604 905 q 601 817 604 837 q 492 697 581 731 q 572 585 572 670 q 567 552 572 569 "},"[":{"x_min":-58.6875,"x_max":491.28125,"ha":371,"o":"m 214 -281 l -58 -281 l 217 1013 l 491 1013 l 470 920 l 320 919 l 84 -186 l 234 -187 l 214 -281 "},"L":{"x_min":0,"x_max":672.21875,"ha":696,"o":"m 645 0 l 0 0 l 217 1013 l 357 1012 l 168 126 l 672 126 l 645 0 "},"σ":{"x_min":68,"x_max":962.203125,"ha":894,"o":"m 938 628 l 769 628 q 804 465 804 557 q 792 368 804 420 q 638 93 756 204 q 352 -25 513 -25 q 142 56 216 -25 q 68 266 68 137 q 79 368 68 312 q 231 644 113 533 q 519 761 356 761 q 642 750 560 761 q 767 739 724 739 l 962 739 l 938 628 m 379 85 q 567 180 484 85 q 665 374 640 263 q 673 451 673 415 q 630 592 673 540 q 491 651 582 651 q 306 559 385 651 q 214 368 237 478 q 206 286 206 326 q 244 146 206 197 q 379 85 290 85 "},"ζ":{"x_min":51,"x_max":777.453125,"ha":642,"o":"m 563 -40 q 517 -162 551 -97 q 449 -278 501 -194 l 339 -278 q 413 -162 388 -209 q 441 -90 434 -122 q 444 -68 444 -73 q 374 -14 444 -14 q 142 27 217 -14 q 51 199 51 78 q 62 289 51 237 q 162 524 87 409 q 335 730 230 628 q 545 901 421 813 l 248 901 l 271 1012 l 777 1012 l 758 924 q 402 669 556 830 q 191 301 233 491 q 183 231 183 260 q 376 105 183 110 q 569 6 569 99 q 569 -19 569 -5 q 563 -40 564 -35 "},"θ":{"x_min":86,"x_max":802,"ha":778,"o":"m 779 496 q 635 160 739 306 q 330 -26 503 -26 q 138 79 201 -26 q 86 312 86 168 q 104 485 86 399 q 252 840 145 682 q 567 1045 390 1045 q 753 936 693 1045 q 802 697 802 847 q 779 496 802 600 m 670 579 q 677 683 677 624 q 649 852 677 787 q 536 935 614 935 q 350 798 438 935 q 250 579 288 701 l 670 579 m 647 475 l 228 475 q 221 408 225 454 q 217 333 217 362 q 243 161 217 224 q 355 80 278 80 q 553 233 464 80 q 647 475 615 340 "},"Ο":{"x_min":93,"x_max":1083,"ha":1054,"o":"m 708 1042 q 989 929 890 1042 q 1083 650 1083 823 q 1067 511 1083 585 q 863 136 1019 287 q 476 -26 695 -26 q 188 86 291 -26 q 93 365 93 190 q 108 504 93 430 q 315 880 155 730 q 708 1042 485 1042 m 501 98 q 780 225 659 98 q 923 504 888 339 q 936 615 936 561 q 874 824 936 745 q 674 913 805 913 q 394 785 516 913 q 249 504 284 670 q 237 390 237 446 q 299 184 237 261 q 501 98 369 98 "},"Γ":{"x_min":0,"x_max":922.21875,"ha":749,"o":"m 894 886 l 329 886 l 140 0 l 0 0 l 216 1012 l 922 1012 l 894 886 "}," ":{"x_min":0,"x_max":0,"ha":375},"%":{"x_min":144,"x_max":1147,"ha":1186,"o":"m 845 0 q 696 55 748 0 q 649 187 649 105 q 729 390 649 300 q 950 489 816 489 q 1099 433 1048 489 q 1147 300 1147 383 q 1066 98 1147 188 q 845 0 977 0 m 866 103 q 988 157 940 103 q 1036 278 1036 212 q 1011 353 1036 325 q 926 385 981 385 q 804 330 852 385 q 757 209 757 275 q 784 132 757 162 q 866 103 811 103 m 1099 986 l 278 -26 l 193 -25 l 1014 986 l 1099 986 m 341 468 q 191 524 243 468 q 144 659 144 576 q 223 860 144 772 q 442 958 309 958 q 592 902 539 958 q 641 769 641 851 q 561 566 641 655 q 341 468 474 468 m 424 855 q 297 799 346 855 q 248 678 248 744 q 276 601 248 631 q 361 572 304 572 q 491 628 439 572 q 537 745 537 680 q 509 824 537 793 q 424 855 481 855 "},"P":{"x_min":0,"x_max":888,"ha":806,"o":"m 642 1013 q 821 951 754 1013 q 888 787 888 890 q 881 719 888 748 q 746 506 851 587 q 505 426 640 426 l 232 425 l 141 0 l 0 0 l 216 1013 l 642 1013 m 570 889 l 331 888 l 257 547 l 489 548 q 647 589 575 548 q 747 720 729 638 q 752 755 752 740 q 698 854 752 820 q 570 889 645 889 "},"Έ":{"x_min":170.828125,"x_max":1283.328125,"ha":1118,"o":"m 1077 0 l 341 0 l 558 1013 l 1283 1013 l 1256 889 l 670 889 l 605 585 l 1144 585 l 1119 467 l 580 467 l 506 125 l 1104 125 l 1077 0 m 500 1040 l 254 799 l 170 799 l 362 1040 l 500 1040 "},"Ώ":{"x_min":167.109375,"x_max":1254,"ha":1235,"o":"m 1136 0 l 722 0 l 748 123 q 976 309 881 194 q 1100 558 1070 423 q 1110 651 1110 603 q 1044 845 1110 772 q 848 923 975 923 q 587 822 698 923 q 442 568 475 721 q 431 468 431 512 q 477 274 431 364 q 606 123 524 184 l 579 0 l 167 0 l 193 124 l 411 124 q 292 453 292 258 q 304 572 292 511 q 506 912 348 782 q 873 1042 664 1042 q 1151 944 1049 1042 q 1254 683 1254 846 q 1241 569 1254 630 q 1136 326 1215 443 q 943 124 1056 210 l 1162 124 l 1136 0 m 500 1040 l 254 800 l 171 800 l 362 1041 l 500 1040 "},"_":{"x_min":-70.828125,"x_max":655.5625,"ha":803,"o":"m 634 -334 l -70 -334 l -50 -234 l 655 -234 l 634 -334 "},"Ϊ":{"x_min":0,"x_max":500,"ha":275,"o":"m 469 1046 l 341 1046 l 372 1189 l 500 1189 l 469 1046 m 241 1046 l 113 1046 l 144 1189 l 272 1189 l 241 1046 m 136 0 l 0 0 l 216 1012 l 352 1012 l 136 0 "},"+":{"x_min":102.78125,"x_max":868.0625,"ha":792,"o":"m 847 372 l 523 372 l 444 0 l 347 0 l 426 372 l 102 372 l 123 468 l 446 468 l 525 839 l 622 840 l 543 468 l 868 468 l 847 372 "},"½":{"x_min":125.296875,"x_max":1136,"ha":1149,"o":"m 1051 0 l 625 0 q 751 179 647 106 q 935 277 766 190 q 1048 385 1035 330 q 1051 406 1051 399 q 1023 462 1051 442 q 953 483 996 483 q 858 452 899 483 q 795 352 809 416 l 715 352 q 812 502 736 448 q 967 551 881 551 q 1087 516 1038 551 q 1136 420 1136 481 q 1131 385 1136 405 q 1030 251 1113 301 q 866 179 948 215 q 731 68 768 133 l 1065 68 l 1051 0 m 1046 985 l 209 -28 l 125 -28 l 961 984 l 1046 985 m 313 422 l 232 422 l 315 811 l 173 811 l 184 867 q 294 889 247 867 q 372 973 352 916 l 431 973 l 313 422 "},"Ρ":{"x_min":-0.328125,"x_max":883,"ha":783,"o":"m 641 1013 q 817 953 752 1013 q 883 793 883 893 q 874 723 883 761 q 742 508 846 591 q 505 426 638 426 l 231 426 l 139 0 l 0 0 l 216 1013 l 641 1013 m 569 889 l 330 889 l 256 548 l 488 548 q 646 589 574 548 q 746 720 728 638 q 751 755 751 740 q 697 854 751 820 q 569 889 644 889 "},"'":{"x_min":143.0625,"x_max":355.5625,"ha":236,"o":"m 320 851 q 259 737 306 785 q 143 669 211 689 l 156 734 q 227 787 201 741 q 258 873 247 819 l 186 872 l 216 1013 l 355 1013 l 320 851 "},"ª":{"x_min":151,"x_max":501,"ha":397,"o":"m 482 625 q 439 616 459 616 q 404 631 414 616 q 394 673 394 645 q 325 628 364 644 q 248 613 287 613 q 151 696 151 613 q 153 722 151 703 q 248 826 170 800 q 428 866 338 846 l 437 887 q 421 935 442 918 q 366 953 399 953 q 304 934 332 953 q 264 882 275 915 l 205 882 q 270 977 220 943 q 382 1011 320 1011 q 466 986 431 1011 q 501 916 501 961 q 501 891 501 908 l 459 706 q 456 687 456 693 q 474 670 456 670 l 492 672 l 482 625 m 406 757 l 419 811 q 305 790 345 798 q 219 726 229 773 q 218 712 218 721 q 274 667 218 667 q 357 691 316 667 q 406 757 398 716 "},"΅":{"x_min":170.828125,"x_max":647.21875,"ha":553,"o":"m 620 800 l 511 800 l 537 925 l 647 925 l 620 800 m 629 1040 l 383 800 l 300 800 l 491 1040 l 629 1040 m 280 800 l 170 800 l 197 925 l 306 925 l 280 800 "},"T":{"x_min":190.28125,"x_max":994.453125,"ha":835,"o":"m 968 894 l 648 894 l 458 0 l 319 0 l 509 894 l 190 894 l 216 1013 l 994 1013 l 968 894 "},"Φ":{"x_min":99,"x_max":1033,"ha":997,"o":"m 526 0 l 388 0 l 415 122 q 185 204 272 122 q 99 423 99 287 q 100 465 99 451 q 109 510 101 479 q 278 786 145 678 q 579 894 412 894 l 605 1013 l 743 1013 l 716 894 q 946 812 859 894 q 1033 597 1033 731 q 1031 555 1033 571 q 1023 510 1030 540 q 854 231 988 341 q 552 122 720 122 l 526 0 m 574 226 q 778 310 689 226 q 887 508 862 390 q 895 580 895 545 q 843 728 895 672 q 693 788 788 788 l 574 226 m 437 226 l 556 788 q 355 699 440 776 q 245 505 269 622 q 240 475 242 495 q 238 436 238 455 q 290 285 238 344 q 437 226 342 226 "},"j":{"x_min":-136.5,"x_max":384.546875,"ha":349,"o":"m 354 870 l 229 870 l 259 1012 l 384 1013 l 354 870 m 150 -80 q 73 -231 127 -184 q -85 -278 18 -278 l -136 -278 l -111 -164 l -75 -164 q -3 -142 -22 -164 q 28 -63 16 -121 l 199 737 l 324 738 l 150 -80 "},"Σ":{"x_min":0,"x_max":962.5,"ha":819,"o":"m 756 0 l 0 0 l 22 107 l 508 523 l 215 904 l 238 1013 l 962 1013 l 936 889 l 400 889 l 679 523 l 213 125 l 783 125 l 756 0 "},"1":{"x_min":365.28125,"x_max":786.125,"ha":792,"o":"m 575 0 l 442 0 l 591 697 l 365 697 l 386 796 q 566 833 504 796 q 687 986 636 875 l 786 986 l 575 0 "},"›":{"x_min":26.390625,"x_max":873.609375,"ha":792,"o":"m 854 376 l 26 40 l 50 148 l 722 421 l 165 692 l 188 799 l 873 465 l 854 376 "},"<":{"x_min":97.609375,"x_max":943.125,"ha":792,"o":"m 780 40 l 97 376 l 117 465 l 943 799 l 919 692 l 248 421 l 804 149 l 780 40 "},"£":{"x_min":22,"x_max":840,"ha":801,"o":"m 712 41 q 621 -10 665 5 q 536 -26 577 -26 q 362 15 495 -26 q 251 36 295 36 q 164 23 205 36 q 69 -21 123 10 l 22 76 q 209 247 167 184 q 251 376 251 311 q 246 414 251 393 q 241 443 242 436 l 94 443 l 109 512 l 217 512 q 191 655 191 581 q 288 902 191 804 q 573 1010 393 1010 q 763 949 687 1010 q 840 786 840 889 q 833 729 840 761 l 823 684 l 697 684 q 705 750 705 720 q 667 857 705 818 q 553 896 629 896 q 374 830 430 896 q 329 681 329 776 q 335 601 329 641 q 356 512 342 562 l 577 512 l 562 443 l 373 443 q 377 399 377 419 q 282 206 377 305 q 175 107 252 175 q 254 132 215 123 q 322 142 294 142 q 435 119 368 142 q 537 96 502 96 q 601 105 570 96 q 677 142 631 115 l 712 41 "},"t":{"x_min":133.328125,"x_max":523.609375,"ha":458,"o":"m 366 0 q 310 -5 337 -2 q 261 -8 283 -8 q 133 91 133 -8 q 138 143 133 116 l 244 638 l 136 638 l 157 738 l 265 737 l 310 944 l 433 943 l 389 737 l 523 738 l 502 638 l 368 637 l 271 184 q 266 152 266 168 q 329 102 266 102 q 367 104 352 102 q 388 107 381 107 l 366 0 "},"¬":{"x_min":72.21875,"x_max":793.0625,"ha":803,"o":"m 793 411 l 738 158 l 662 158 l 701 335 l 72 335 l 87 411 l 793 411 "},"λ":{"x_min":0,"x_max":770.828125,"ha":803,"o":"m 748 -7 q 676 -15 712 -15 q 551 59 588 -15 q 512 214 533 97 l 454 551 l 126 0 l 0 0 l 422 705 q 402 837 412 770 q 308 899 381 899 q 281 898 291 899 l 305 1004 q 332 1008 318 1006 q 369 1011 347 1011 q 498 938 459 1011 q 541 783 519 901 l 647 193 q 673 116 656 136 q 736 96 690 96 l 756 96 q 770 97 766 97 l 748 -7 "},"W":{"x_min":216,"x_max":1479.890625,"ha":1351,"o":"m 1479 1013 l 995 0 l 859 0 l 806 837 l 404 0 l 265 0 l 216 1013 l 352 1013 l 385 203 l 773 1012 l 917 1013 l 965 208 l 1349 1013 l 1479 1013 "},">":{"x_min":26.390625,"x_max":873.609375,"ha":792,"o":"m 854 376 l 26 40 l 50 148 l 722 421 l 165 692 l 188 799 l 873 465 l 854 376 "},"v":{"x_min":156.9375,"x_max":832.265625,"ha":761,"o":"m 832 738 l 404 0 l 272 0 l 156 738 l 290 738 l 372 147 l 698 737 l 832 738 "},"τ":{"x_min":134.71875,"x_max":802.78125,"ha":703,"o":"m 779 628 l 516 628 l 420 179 q 413 133 413 154 q 455 91 413 91 q 488 94 465 91 q 525 97 512 97 l 504 0 q 398 -14 445 -14 q 314 15 338 -14 q 290 99 290 45 q 294 159 290 133 q 309 233 298 186 l 394 628 l 134 628 l 158 739 l 802 739 l 779 628 "},"ξ":{"x_min":51,"x_max":792.453125,"ha":699,"o":"m 616 -37 q 571 -161 603 -96 q 503 -278 546 -212 l 393 -278 q 452 -183 441 -204 q 492 -83 482 -126 q 495 -62 495 -66 q 461 -11 495 -25 q 371 1 427 1 q 323 0 353 1 q 282 -1 292 -1 q 116 58 182 -1 q 51 212 51 117 q 51 233 51 224 q 56 266 51 242 q 148 431 75 358 q 311 538 213 498 q 233 599 261 559 q 204 692 204 638 q 209 730 204 710 q 252 823 220 780 q 335 901 285 867 l 220 901 l 243 1012 l 792 1012 l 768 901 l 573 901 q 429 863 496 901 q 336 745 352 819 q 332 710 332 726 q 454 595 332 623 q 656 582 516 582 l 634 479 q 373 455 463 479 q 177 281 204 410 q 173 249 173 265 q 209 165 173 198 q 300 120 245 131 q 462 108 304 119 q 620 0 620 97 q 616 -37 620 -16 "},"&":{"x_min":51,"x_max":894.0625,"ha":992,"o":"m 894 0 l 723 0 l 650 123 q 472 0 563 40 q 298 -41 381 -41 q 81 92 141 -41 q 51 225 51 161 q 123 406 51 322 q 373 582 200 497 q 326 667 341 629 q 307 765 307 715 q 307 796 307 781 q 312 817 311 811 q 425 985 334 922 q 606 1041 505 1041 q 747 997 690 1041 q 804 872 804 953 q 804 850 804 861 q 798 824 799 832 q 706 666 780 739 q 551 557 648 608 l 692 326 q 744 427 718 362 q 769 493 757 458 l 887 493 q 752 229 855 351 l 894 0 m 678 819 q 683 852 683 838 q 655 917 683 895 q 585 940 627 940 q 487 908 532 940 q 430 819 442 876 q 426 784 426 799 q 448 699 426 741 q 498 628 462 674 q 633 730 592 684 q 678 819 667 770 m 601 209 l 421 500 q 247 380 303 443 q 191 250 191 317 q 216 159 191 204 q 349 80 257 80 q 601 209 466 80 "},"Λ":{"x_min":0,"x_max":862.5,"ha":942,"o":"m 862 0 l 719 0 l 606 847 l 143 0 l 0 0 l 573 1013 l 718 1013 l 862 0 "},"I":{"x_min":40.65625,"x_max":396.390625,"ha":293,"o":"m 179 0 l 40 0 l 257 1013 l 396 1012 l 179 0 "},"G":{"x_min":93,"x_max":1060,"ha":1011,"o":"m 920 0 l 831 0 l 830 136 q 658 15 754 58 q 465 -28 563 -28 q 187 88 288 -28 q 93 370 93 198 q 106 499 93 438 q 313 881 155 730 q 708 1043 482 1043 q 954 966 855 1043 q 1060 750 1060 885 q 1060 729 1060 739 q 1060 709 1060 715 l 924 709 q 856 865 924 805 q 684 926 789 926 q 396 795 520 926 q 249 507 285 678 q 237 396 237 450 q 300 184 237 266 q 503 94 371 94 q 751 195 644 94 q 888 435 851 290 l 570 435 l 594 549 l 1037 549 l 920 0 "},"ΰ":{"x_min":64,"x_max":775.5625,"ha":725,"o":"m 694 800 l 584 800 l 611 925 l 720 925 l 694 800 m 354 800 l 244 800 l 270 925 l 380 925 l 354 800 m 692 352 q 561 93 660 199 q 303 -24 450 -24 q 121 56 183 -24 q 64 248 64 129 q 75 352 64 296 l 158 738 l 285 738 l 203 354 q 195 275 195 317 q 225 153 195 200 q 333 98 261 98 q 492 185 424 98 q 568 354 547 256 l 650 738 l 775 738 l 692 352 m 711 1040 l 475 819 l 391 819 l 573 1040 l 711 1040 "},"`":{"x_min":147.609375,"x_max":360.109375,"ha":236,"o":"m 286 698 l 147 699 l 182 861 q 242 974 196 927 q 360 1041 289 1020 l 346 977 q 276 924 301 969 q 247 839 258 893 l 316 839 l 286 698 "},"·":{"x_min":125,"x_max":297.9375,"ha":239,"o":"m 266 585 l 125 585 l 156 738 l 297 738 l 266 585 "},"Υ":{"x_min":216.671875,"x_max":1036.109375,"ha":889,"o":"m 1036 1013 l 570 416 l 481 0 l 341 0 l 430 416 l 216 1013 l 356 1013 l 525 533 l 895 1013 l 1036 1013 "},"r":{"x_min":0,"x_max":516.671875,"ha":432,"o":"m 488 621 l 476 621 q 300 569 369 621 q 210 411 232 518 l 122 0 l 0 0 l 156 737 l 273 737 l 245 604 q 358 719 291 686 q 516 753 425 753 l 488 621 "},"x":{"x_min":0,"x_max":818.0625,"ha":764,"o":"m 675 0 l 525 0 l 392 286 l 143 0 l 0 0 l 337 379 l 169 738 l 315 737 l 438 474 l 673 737 l 818 738 l 494 380 l 675 0 "},"μ":{"x_min":-59.71875,"x_max":773.609375,"ha":747,"o":"m 695 -4 q 661 -11 677 -8 q 626 -14 644 -14 q 519 97 519 -14 q 425 8 479 40 q 308 -24 370 -24 q 208 3 251 -24 q 136 80 165 31 l 59 -278 l -59 -278 l 156 738 l 280 738 l 197 343 q 188 262 188 305 q 218 138 188 184 q 326 82 254 82 q 490 177 419 82 q 569 358 547 255 l 650 738 l 773 738 l 662 214 q 656 181 659 200 q 654 147 654 162 q 662 106 654 121 q 694 92 670 92 q 718 95 702 92 l 695 -4 "},"h":{"x_min":-0.46875,"x_max":726,"ha":724,"o":"m 716 472 l 615 0 l 489 0 l 587 454 q 595 522 595 487 q 570 615 595 581 q 478 654 540 654 q 313 588 392 654 q 215 436 234 523 l 122 0 l 0 0 l 216 1013 l 338 1013 l 256 633 q 374 727 298 694 q 524 760 449 760 q 677 703 624 760 q 726 557 726 650 q 723 518 726 540 q 716 472 720 497 "},".":{"x_min":0,"x_max":173.015625,"ha":239,"o":"m 141 0 l 0 0 l 31 151 l 173 151 l 141 0 "},"φ":{"x_min":67,"x_max":970,"ha":974,"o":"m 436 -279 l 318 -279 l 374 -17 q 146 58 226 -17 q 67 266 67 134 q 68 317 67 301 q 78 367 69 333 q 203 626 108 512 q 446 758 313 758 l 422 646 q 282 537 342 626 q 213 373 233 465 q 205 331 208 352 q 203 291 203 310 q 250 147 203 201 q 397 93 298 93 l 540 758 q 640 765 596 765 q 880 686 790 765 q 970 473 970 608 q 958 377 970 430 q 791 96 922 210 q 492 -17 660 -17 l 436 -279 m 516 93 l 534 93 q 727 183 642 93 q 829 380 804 265 q 837 458 837 420 q 797 598 837 545 q 663 658 752 658 l 637 656 l 516 93 "},";":{"x_min":-44.4375,"x_max":297.9375,"ha":239,"o":"m 266 585 l 125 585 l 156 738 l 297 738 l 266 585 m 138 -12 q 76 -132 123 -84 q -44 -206 29 -181 l -29 -138 q 40 -82 16 -123 q 68 0 55 -56 l 0 0 l 32 150 l 173 151 l 138 -12 "},"f":{"x_min":121.09375,"x_max":595.828125,"ha":472,"o":"m 513 638 l 381 638 l 245 0 l 121 0 l 257 637 l 136 638 l 156 738 l 277 738 q 337 935 311 887 q 509 1028 390 1028 q 550 1026 534 1028 q 595 1021 565 1025 l 572 908 q 519 918 543 918 q 441 870 469 918 q 412 780 423 840 l 402 738 l 534 738 l 513 638 "},"“":{"x_min":144.4375,"x_max":565.28125,"ha":454,"o":"m 283 669 l 144 670 l 179 830 q 240 943 193 896 q 356 1011 288 991 l 343 947 q 272 894 300 940 q 241 810 251 859 l 313 810 l 283 669 m 491 669 l 352 670 l 387 830 q 449 943 401 895 q 565 1011 497 991 l 551 947 q 480 894 508 940 q 450 810 459 859 l 522 810 l 491 669 "},"A":{"x_min":-0.015625,"x_max":906.96875,"ha":1008,"o":"m 906 0 l 757 0 l 713 303 l 316 303 l 142 0 l 0 0 l 593 1013 l 745 1013 l 906 0 m 700 421 l 637 867 l 383 421 l 700 421 "},"6":{"x_min":129,"x_max":889,"ha":792,"o":"m 805 312 q 646 62 773 162 q 394 -31 528 -31 q 208 42 278 -31 q 129 278 129 124 q 133 353 129 314 q 147 439 137 391 q 358 859 205 712 q 644 986 490 986 q 818 923 747 986 q 889 759 889 861 q 884 714 889 737 l 754 714 q 756 737 756 722 q 715 837 756 800 q 615 875 675 875 q 440 792 522 875 q 302 516 342 695 q 427 596 360 569 q 559 624 494 624 q 739 557 667 624 q 812 380 812 491 q 810 347 812 365 q 805 312 809 329 m 667 298 q 673 332 672 325 q 674 358 674 339 q 628 474 674 433 q 515 516 583 516 q 368 461 436 516 q 270 300 293 401 q 264 266 265 273 q 264 240 264 259 q 311 121 264 165 q 422 83 354 83 q 569 137 501 83 q 667 298 644 197 "},"‘":{"x_min":144.4375,"x_max":356.9375,"ha":236,"o":"m 283 669 l 144 670 l 179 830 q 240 943 193 895 q 356 1011 288 991 l 343 947 q 272 894 300 940 q 241 810 251 859 l 313 810 l 283 669 "},"ϊ":{"x_min":72.21875,"x_max":480.5625,"ha":361,"o":"m 454 800 l 344 800 l 370 925 l 480 925 l 454 800 m 211 800 l 101 800 l 127 925 l 237 925 l 211 800 m 283 3 q 231 -9 258 -3 q 179 -15 204 -15 q 96 16 120 -15 q 72 105 72 48 q 74 148 72 132 q 84 200 76 164 l 198 737 l 323 737 l 213 215 q 206 180 209 198 q 202 150 202 162 q 212 114 202 126 q 248 101 222 101 q 281 105 265 101 q 306 112 297 110 l 283 3 "},"π":{"x_min":97.21875,"x_max":930.5625,"ha":857,"o":"m 772 -6 l 705 -11 q 604 13 633 -11 q 576 86 576 37 q 587 168 576 116 q 601 226 594 197 l 686 626 l 355 626 l 222 0 l 97 0 l 230 626 l 133 626 l 156 737 l 930 737 l 906 626 l 809 626 l 712 172 q 708 134 708 148 q 726 97 708 105 q 793 90 744 90 l 772 -6 "},"ά":{"x_min":68,"x_max":843,"ha":808,"o":"m 763 -4 q 695 -14 724 -14 q 584 97 584 -14 q 467 7 533 40 q 331 -26 401 -26 q 136 60 205 -26 q 68 272 68 146 q 79 369 68 318 q 224 637 112 525 q 499 760 347 760 q 620 727 569 760 q 698 637 672 695 l 720 738 l 843 738 l 731 222 q 726 189 729 208 q 723 155 723 171 q 733 110 723 126 q 769 94 743 94 q 786 96 780 94 l 763 -4 m 662 371 q 671 453 671 412 q 632 593 671 541 q 499 653 587 653 q 311 566 392 653 q 215 379 239 490 q 206 290 206 339 q 243 146 206 199 q 376 84 287 84 q 567 176 485 84 q 662 371 637 257 m 826 1040 l 590 819 l 506 819 l 688 1040 l 826 1040 "},"O":{"x_min":93,"x_max":1083,"ha":1057,"o":"m 708 1041 q 989 928 890 1041 q 1083 649 1083 823 q 1067 512 1083 585 q 863 136 1019 287 q 476 -26 695 -26 q 188 86 291 -26 q 93 365 93 190 q 108 504 93 430 q 315 880 155 730 q 708 1041 485 1041 m 501 98 q 780 225 659 98 q 923 504 888 339 q 936 615 936 561 q 874 823 936 744 q 674 912 805 912 q 394 784 516 912 q 249 504 284 669 q 237 390 237 446 q 299 183 237 261 q 501 98 369 98 "},"n":{"x_min":-0.015625,"x_max":724,"ha":724,"o":"m 713 463 l 615 0 l 490 0 l 587 454 q 595 518 595 491 q 567 615 595 579 q 472 656 535 656 q 304 584 382 656 q 206 420 226 512 l 116 0 l 0 0 l 158 738 l 275 738 l 251 630 q 373 728 297 693 q 523 764 448 764 q 676 704 625 764 q 724 554 724 650 q 722 511 724 526 q 713 463 721 495 "},"3":{"x_min":109,"x_max":860,"ha":792,"o":"m 798 284 q 646 55 767 141 q 393 -25 534 -25 q 190 31 264 -25 q 109 218 109 95 q 118 308 109 261 l 249 308 q 242 248 242 273 q 289 134 242 172 q 415 96 336 96 q 569 140 504 96 q 661 280 642 190 q 667 326 667 302 q 586 434 667 405 q 420 454 532 454 l 443 565 q 611 584 561 565 q 717 719 695 617 q 722 753 722 738 q 682 844 722 810 q 581 879 642 879 q 432 824 496 879 q 343 661 369 769 l 218 661 q 356 907 253 823 q 599 992 458 992 q 785 934 711 992 q 860 777 860 877 q 860 752 860 765 q 854 723 855 733 q 798 606 840 656 q 689 524 756 556 q 776 458 748 503 q 805 348 805 412 q 798 284 805 322 "},"9":{"x_min":104,"x_max":869,"ha":792,"o":"m 850 524 q 638 94 789 242 q 356 -32 509 -32 q 176 31 249 -32 q 104 193 104 94 q 106 220 104 205 q 109 243 108 234 l 241 243 q 239 212 239 231 q 280 119 239 156 q 384 82 322 82 q 552 161 474 82 q 691 440 647 257 q 434 334 572 334 q 242 404 309 334 q 183 573 183 468 q 292 850 183 726 q 594 986 413 986 q 807 897 738 986 q 869 680 869 819 q 850 524 869 611 m 481 449 q 664 534 591 449 q 731 710 731 613 q 693 824 731 781 q 572 873 651 873 q 389 785 463 873 q 321 606 321 705 q 360 493 321 537 q 481 449 400 449 "},"l":{"x_min":40.65625,"x_max":382.09375,"ha":279,"o":"m 165 0 l 40 0 l 257 1013 l 382 1013 l 165 0 "},"¤":{"x_min":105.015625,"x_max":903.21875,"ha":825,"o":"m 793 303 l 698 224 l 589 363 q 453 331 528 331 q 334 363 382 331 l 167 224 l 105 304 l 271 442 q 262 503 262 469 q 328 673 262 596 l 215 818 l 310 898 l 427 749 q 485 766 455 759 q 549 773 516 773 q 611 766 582 773 q 660 749 639 759 l 841 898 l 903 818 l 729 675 q 744 600 744 643 q 685 441 744 512 l 793 303 m 529 682 q 405 632 453 682 q 358 524 358 583 q 386 451 358 479 q 473 423 414 423 q 597 472 549 423 q 645 580 645 521 q 618 651 645 625 q 529 682 588 682 "},"κ":{"x_min":0,"x_max":752.78125,"ha":679,"o":"m 631 0 l 481 0 l 306 384 l 184 288 l 123 0 l 0 0 l 156 738 l 280 738 l 219 446 l 590 738 l 752 738 l 412 466 l 631 0 "},"4":{"x_min":100,"x_max":818.0625,"ha":792,"o":"m 794 243 l 654 242 l 602 0 l 477 0 l 528 243 l 100 243 l 127 368 l 679 958 l 806 958 l 678 353 l 818 354 l 794 243 m 552 354 l 646 793 l 239 354 l 552 354 "},"p":{"x_min":-58.71875,"x_max":775,"ha":786,"o":"m 763 364 q 619 96 730 207 q 345 -23 500 -23 q 141 88 202 -23 l 62 -278 l -58 -278 l 159 738 l 280 738 l 256 633 q 376 726 307 691 q 515 761 444 761 q 711 673 641 761 q 775 465 775 593 q 763 364 775 419 m 637 371 q 646 448 646 411 q 605 590 646 535 q 470 651 559 651 q 281 559 362 651 q 187 366 212 480 q 178 289 178 326 q 219 147 178 202 q 352 87 265 87 q 541 178 459 87 q 637 371 612 258 "},"‡":{"x_min":50,"x_max":950,"ha":835,"o":"m 509 238 l 458 0 l 319 0 l 370 238 l 50 238 l 76 360 l 396 360 l 465 681 l 145 683 l 172 804 l 491 804 l 536 1015 l 675 1014 l 630 804 l 950 804 l 923 683 l 604 683 l 535 360 l 854 360 l 829 238 l 509 238 "},"ψ":{"x_min":68,"x_max":967.109375,"ha":907,"o":"m 406 -278 l 282 -278 l 339 -15 q 137 63 207 -15 q 68 270 68 142 q 80 378 68 321 l 158 739 l 292 739 l 214 379 q 206 303 206 343 q 242 163 206 218 q 362 98 283 98 l 539 922 l 662 922 l 486 98 q 665 195 585 98 q 757 382 733 278 l 833 742 l 967 742 l 890 381 q 746 104 854 211 q 464 -13 628 -13 l 406 -278 "},"η":{"x_min":80.5625,"x_max":812.5,"ha":810,"o":"m 637 -278 l 512 -278 l 669 454 q 676 520 676 491 q 651 611 676 577 q 563 650 622 650 q 395 579 476 650 q 295 420 313 509 l 205 0 l 80 0 l 184 489 q 193 535 190 517 q 197 574 197 553 q 186 623 197 607 q 137 644 170 644 l 158 741 q 229 755 197 755 q 309 721 283 755 q 334 630 334 688 q 452 726 381 692 q 597 761 522 761 q 752 709 693 761 q 812 570 812 658 q 812 545 812 558 q 806 516 808 526 l 637 -278 "}}}
